<svg width="881" height="275" viewBox="0 0 881 275" fill="none" xmlns="http://www.w3.org/2000/svg">
<g filter="url(#filter0_i_101_6906)">
<path fill-rule="evenodd" clip-rule="evenodd" d="M855 5H36V18H16V45H5V259H18V270H837V259H865V235H876V32H865V18H855V5Z" fill="#F7F7D3"/>
</g>
<path d="M36 5V0H31V5H36ZM855 5H860V0H855V5ZM36 18V23H41V18H36ZM16 18V13H11V18H16ZM16 45V50H21V45H16ZM5 45V40H0V45H5ZM5 259H0V264H5V259ZM18 259H23V254H18V259ZM18 270H13V275H18V270ZM837 270V275H842V270H837ZM837 259V254H832V259H837ZM865 259V264H870V259H865ZM865 235V230H860V235H865ZM876 235V240H881V235H876ZM876 32H881V27H876V32ZM865 32H860V37H865V32ZM865 18H870V13H865V18ZM855 18H850V23H855V18ZM36 10H855V0H36V10ZM41 18V5H31V18H41ZM16 23H36V13H16V23ZM21 45V18H11V45H21ZM5 50H16V40H5V50ZM10 259V45H0V259H10ZM18 254H5V264H18V254ZM23 270V259H13V270H23ZM837 265H18V275H837V265ZM832 259V270H842V259H832ZM865 254H837V264H865V254ZM860 235V259H870V235H860ZM876 230H865V240H876V230ZM871 32V235H881V32H871ZM865 37H876V27H865V37ZM860 18V32H870V18H860ZM855 23H865V13H855V23ZM850 5V18H860V5H850Z" fill="black"/>
<defs>
<filter id="filter0_i_101_6906" x="0" y="0" width="881" height="275" filterUnits="userSpaceOnUse" color-interpolation-filters="sRGB">
<feFlood flood-opacity="0" result="BackgroundImageFix"/>
<feBlend mode="normal" in="SourceGraphic" in2="BackgroundImageFix" result="shape"/>
<feColorMatrix in="SourceAlpha" type="matrix" values="0 0 0 0 0 0 0 0 0 0 0 0 0 0 0 0 0 0 127 0" result="hardAlpha"/>
<feOffset dx="20" dy="20"/>
<feComposite in2="hardAlpha" operator="arithmetic" k2="-1" k3="1"/>
<feColorMatrix type="matrix" values="0 0 0 0 0.823529 0 0 0 0 0.788235 0 0 0 0 0.631373 0 0 0 1 0"/>
<feBlend mode="normal" in2="shape" result="effect1_innerShadow_101_6906"/>
</filter>
</defs>
</svg>
