<svg width="190" height="52" viewBox="0 0 190 52" fill="none" xmlns="http://www.w3.org/2000/svg">
<rect width="56" height="24" rx="4" fill="#F3F4F6"/>
<path d="M5.05682 16V7.27273H6.11364V11.1591H10.767V7.27273H11.8239V16H10.767V12.0966H6.11364V16H5.05682ZM13.9396 16V7.27273H16.8885C17.5732 7.27273 18.1328 7.39631 18.5675 7.64347C19.005 7.88778 19.3288 8.21875 19.5391 8.63636C19.7493 9.05398 19.8544 9.51989 19.8544 10.0341C19.8544 10.5483 19.7493 11.0156 19.5391 11.4361C19.3317 11.8565 19.0107 12.1918 18.576 12.4418C18.1413 12.6889 17.5845 12.8125 16.9055 12.8125H14.7919V11.875H16.8714C17.3402 11.875 17.7166 11.794 18.0007 11.6321C18.2848 11.4702 18.4908 11.2514 18.6186 10.9759C18.7493 10.6974 18.8146 10.3835 18.8146 10.0341C18.8146 9.68466 18.7493 9.37216 18.6186 9.09659C18.4908 8.82102 18.2834 8.60511 17.9964 8.44886C17.7095 8.28977 17.3288 8.21023 16.8544 8.21023H14.9964V16H13.9396Z" fill="#374151"/>
<path d="M29.5043 7.27273V16H27.6591V9.02415H27.608L25.6094 10.277V8.64062L27.7699 7.27273H29.5043ZM35.0004 16.1918C34.2674 16.1889 33.6367 16.0085 33.1083 15.6506C32.5827 15.2926 32.1779 14.7741 31.8938 14.0952C31.6126 13.4162 31.4734 12.5994 31.4762 11.6449C31.4762 10.6932 31.6168 9.8821 31.8981 9.21165C32.1822 8.54119 32.587 8.03125 33.1126 7.68182C33.641 7.32955 34.2702 7.15341 35.0004 7.15341C35.7305 7.15341 36.3583 7.32955 36.8839 7.68182C37.4123 8.03409 37.8185 8.54545 38.1026 9.21591C38.3867 9.88352 38.5273 10.6932 38.5245 11.6449C38.5245 12.6023 38.3825 13.4205 38.0984 14.0994C37.8171 14.7784 37.4137 15.2969 36.8881 15.6548C36.3626 16.0128 35.7333 16.1918 35.0004 16.1918ZM35.0004 14.6619C35.5004 14.6619 35.8995 14.4105 36.1978 13.9077C36.4961 13.4048 36.6438 12.6506 36.641 11.6449C36.641 10.983 36.5728 10.4318 36.4364 9.99148C36.3029 9.55114 36.1126 9.22017 35.8654 8.99858C35.6211 8.77699 35.3327 8.66619 35.0004 8.66619C34.5032 8.66619 34.1055 8.91477 33.8072 9.41193C33.5089 9.90909 33.3583 10.6534 33.3555 11.6449C33.3555 12.3153 33.4222 12.875 33.5558 13.3239C33.6921 13.7699 33.8839 14.1051 34.131 14.3295C34.3782 14.5511 34.668 14.6619 35.0004 14.6619ZM39.951 16L43.5689 8.84091V8.78125H39.3544V7.27273H45.478V8.80256L41.8558 16H39.951ZM50.5394 7.27273V16H48.6942V9.02415H48.6431L46.6445 10.277V8.64062L48.805 7.27273H50.5394Z" fill="#374151"/>
<rect x="60" width="51" height="24" rx="4" fill="#F3F4F6"/>
<path d="M72.0795 10H71.0227C70.9602 9.69602 70.8509 9.42898 70.6946 9.19886C70.5412 8.96875 70.3537 8.77557 70.1321 8.61932C69.9134 8.46023 69.6705 8.34091 69.4034 8.26136C69.1364 8.18182 68.858 8.14205 68.5682 8.14205C68.0398 8.14205 67.5611 8.27557 67.1321 8.54261C66.706 8.80966 66.3665 9.20312 66.1136 9.72301C65.8636 10.2429 65.7386 10.8807 65.7386 11.6364C65.7386 12.392 65.8636 13.0298 66.1136 13.5497C66.3665 14.0696 66.706 14.4631 67.1321 14.7301C67.5611 14.9972 68.0398 15.1307 68.5682 15.1307C68.858 15.1307 69.1364 15.0909 69.4034 15.0114C69.6705 14.9318 69.9134 14.8139 70.1321 14.6577C70.3537 14.4986 70.5412 14.304 70.6946 14.0739C70.8509 13.8409 70.9602 13.5739 71.0227 13.2727H72.0795C72 13.7187 71.8551 14.1179 71.6449 14.4702C71.4347 14.8224 71.1733 15.1222 70.8608 15.3693C70.5483 15.6136 70.1974 15.7997 69.8082 15.9276C69.4219 16.0554 69.0085 16.1193 68.5682 16.1193C67.8239 16.1193 67.1619 15.9375 66.5824 15.5739C66.0028 15.2102 65.5469 14.6932 65.2145 14.0227C64.8821 13.3523 64.7159 12.5568 64.7159 11.6364C64.7159 10.7159 64.8821 9.92045 65.2145 9.25C65.5469 8.57955 66.0028 8.0625 66.5824 7.69886C67.1619 7.33523 67.8239 7.15341 68.5682 7.15341C69.0085 7.15341 69.4219 7.21733 69.8082 7.34517C70.1974 7.47301 70.5483 7.66051 70.8608 7.90767C71.1733 8.15199 71.4347 8.45028 71.6449 8.80256C71.8551 9.15199 72 9.55114 72.0795 10ZM73.7873 16V7.27273H76.7362C77.4208 7.27273 77.9805 7.39631 78.4151 7.64347C78.8526 7.88778 79.1765 8.21875 79.3867 8.63636C79.5969 9.05398 79.7021 9.51989 79.7021 10.0341C79.7021 10.5483 79.5969 11.0156 79.3867 11.4361C79.1793 11.8565 78.8583 12.1918 78.4237 12.4418C77.989 12.6889 77.4322 12.8125 76.7532 12.8125H74.6396V11.875H76.7191C77.1879 11.875 77.5643 11.794 77.8484 11.6321C78.1325 11.4702 78.3384 11.2514 78.4663 10.9759C78.5969 10.6974 78.6623 10.3835 78.6623 10.0341C78.6623 9.68466 78.5969 9.37216 78.4663 9.09659C78.3384 8.82102 78.131 8.60511 77.8441 8.44886C77.5572 8.28977 77.1765 8.21023 76.7021 8.21023H74.8441V16H73.7873Z" fill="#374151"/>
<path d="M88.8651 7.15341C89.3139 7.15341 89.7457 7.22869 90.1605 7.37926C90.5781 7.52983 90.9503 7.76989 91.277 8.09943C91.6065 8.42898 91.8665 8.86648 92.0568 9.41193C92.25 9.95455 92.348 10.6207 92.3509 11.4105C92.3509 12.152 92.267 12.8139 92.0994 13.3963C91.9347 13.9759 91.6974 14.4688 91.3878 14.875C91.0781 15.2812 90.7045 15.5909 90.267 15.804C89.8295 16.0142 89.3409 16.1193 88.8011 16.1193C88.2188 16.1193 87.7045 16.0071 87.2585 15.7827C86.8125 15.5554 86.4531 15.2472 86.1804 14.858C85.9105 14.4659 85.7472 14.0256 85.6903 13.5369H87.5099C87.581 13.8551 87.7301 14.1023 87.9574 14.2784C88.1847 14.4517 88.4659 14.5384 88.8011 14.5384C89.3693 14.5384 89.8011 14.2912 90.0966 13.7969C90.392 13.2997 90.5412 12.6193 90.544 11.7557H90.4844C90.3537 12.0114 90.1776 12.2315 89.956 12.4162C89.7344 12.598 89.4801 12.7386 89.1932 12.8381C88.9091 12.9375 88.6065 12.9872 88.2855 12.9872C87.7713 12.9872 87.3125 12.8665 86.9091 12.625C86.5057 12.3835 86.1875 12.0511 85.9545 11.6278C85.7216 11.2045 85.6051 10.7216 85.6051 10.179C85.6023 9.59375 85.7372 9.07244 86.0099 8.61506C86.2827 8.15767 86.6634 7.79972 87.152 7.54119C87.6435 7.27983 88.2145 7.15057 88.8651 7.15341ZM88.8778 8.60227C88.5909 8.60227 88.3352 8.67045 88.1108 8.80682C87.8892 8.94318 87.7131 9.12642 87.5824 9.35653C87.4545 9.58665 87.392 9.84375 87.3949 10.1278C87.3949 10.4148 87.4574 10.6733 87.5824 10.9034C87.7102 11.1307 87.8835 11.3125 88.1023 11.4489C88.3239 11.5824 88.5767 11.6491 88.8608 11.6491C89.0739 11.6491 89.2713 11.6094 89.4531 11.5298C89.6349 11.4503 89.7926 11.3409 89.9261 11.2017C90.0625 11.0597 90.169 10.8963 90.2457 10.7116C90.3224 10.527 90.3608 10.331 90.3608 10.1236C90.358 9.84801 90.2926 9.59517 90.1648 9.36506C90.0369 9.13494 89.8608 8.95028 89.6364 8.81108C89.4119 8.67187 89.1591 8.60227 88.8778 8.60227ZM96.8168 16.1193C96.2145 16.1193 95.6776 16.0085 95.206 15.7869C94.7372 15.5653 94.3651 15.2599 94.0895 14.8707C93.8139 14.4815 93.6705 14.0355 93.6591 13.5327H95.4489C95.4688 13.8707 95.6108 14.1449 95.875 14.3551C96.1392 14.5653 96.4531 14.6705 96.8168 14.6705C97.1065 14.6705 97.3622 14.6065 97.5838 14.4787C97.8082 14.348 97.983 14.1676 98.108 13.9375C98.2358 13.7045 98.2997 13.4375 98.2997 13.1364C98.2997 12.8295 98.2344 12.5597 98.1037 12.3267C97.9759 12.0937 97.7983 11.9119 97.571 11.7812C97.3438 11.6506 97.0838 11.5838 96.7912 11.581C96.5355 11.581 96.2869 11.6335 96.0455 11.7386C95.8068 11.8437 95.6207 11.9872 95.4872 12.169L93.8466 11.875L94.2599 7.27273H99.5952V8.78125H95.7812L95.5554 10.9673H95.6065C95.7599 10.7514 95.9915 10.5724 96.3011 10.4304C96.6108 10.2884 96.9574 10.2173 97.3409 10.2173C97.8665 10.2173 98.3352 10.3409 98.7472 10.5881C99.1591 10.8352 99.4844 11.1747 99.723 11.6065C99.9616 12.0355 100.08 12.5298 100.077 13.0895C100.08 13.6776 99.9432 14.2003 99.6676 14.6577C99.3949 15.1122 99.0128 15.4702 98.5213 15.7315C98.0327 15.9901 97.4645 16.1193 96.8168 16.1193ZM105.161 7.27273V16H103.315V9.02415H103.264L101.266 10.277V8.64062L103.426 7.27273H105.161Z" fill="#374151"/>
<rect x="115" width="62" height="24" rx="4" fill="#F3F4F6"/>
<path d="M121.642 16L119.256 7.27273H120.33L122.153 14.3807H122.239L124.097 7.27273H125.29L127.148 14.3807H127.233L129.057 7.27273H130.131L127.744 16H126.653L124.727 9.04545H124.659L122.733 16H121.642Z" fill="#374151"/>
<path d="M139.129 16.1918C138.396 16.1889 137.766 16.0085 137.237 15.6506C136.712 15.2926 136.307 14.7741 136.023 14.0952C135.741 13.4162 135.602 12.5994 135.605 11.6449C135.605 10.6932 135.746 9.8821 136.027 9.21165C136.311 8.54119 136.716 8.03125 137.241 7.68182C137.77 7.32955 138.399 7.15341 139.129 7.15341C139.859 7.15341 140.487 7.32955 141.013 7.68182C141.541 8.03409 141.947 8.54545 142.232 9.21591C142.516 9.88352 142.656 10.6932 142.653 11.6449C142.653 12.6023 142.511 13.4205 142.227 14.0994C141.946 14.7784 141.543 15.2969 141.017 15.6548C140.491 16.0128 139.862 16.1918 139.129 16.1918ZM139.129 14.6619C139.629 14.6619 140.028 14.4105 140.327 13.9077C140.625 13.4048 140.773 12.6506 140.77 11.6449C140.77 10.983 140.702 10.4318 140.565 9.99148C140.432 9.55114 140.241 9.22017 139.994 8.99858C139.75 8.77699 139.462 8.66619 139.129 8.66619C138.632 8.66619 138.234 8.91477 137.936 9.41193C137.638 9.90909 137.487 10.6534 137.484 11.6449C137.484 12.3153 137.551 12.875 137.685 13.3239C137.821 13.7699 138.013 14.1051 138.26 14.3295C138.507 14.5511 138.797 14.6619 139.129 14.6619ZM144.696 16.1108C144.414 16.1108 144.173 16.0114 143.971 15.8125C143.772 15.6108 143.673 15.3693 143.673 15.0881C143.673 14.8097 143.772 14.571 143.971 14.3722C144.173 14.1733 144.414 14.0739 144.696 14.0739C144.968 14.0739 145.207 14.1733 145.412 14.3722C145.616 14.571 145.718 14.8097 145.718 15.0881C145.718 15.2756 145.67 15.4474 145.574 15.6037C145.48 15.7571 145.356 15.8807 145.203 15.9744C145.049 16.0653 144.88 16.1108 144.696 16.1108ZM147.209 16L150.827 8.84091V8.78125H146.612V7.27273H152.736V8.80256L149.114 16H147.209ZM157.041 7.15341C157.49 7.15341 157.922 7.22869 158.336 7.37926C158.754 7.52983 159.126 7.76989 159.453 8.09943C159.782 8.42898 160.042 8.86648 160.233 9.41193C160.426 9.95455 160.524 10.6207 160.527 11.4105C160.527 12.152 160.443 12.8139 160.275 13.3963C160.11 13.9759 159.873 14.4688 159.564 14.875C159.254 15.2812 158.88 15.5909 158.443 15.804C158.005 16.0142 157.517 16.1193 156.977 16.1193C156.395 16.1193 155.88 16.0071 155.434 15.7827C154.988 15.5554 154.629 15.2472 154.356 14.858C154.086 14.4659 153.923 14.0256 153.866 13.5369H155.686C155.757 13.8551 155.906 14.1023 156.133 14.2784C156.36 14.4517 156.642 14.5384 156.977 14.5384C157.545 14.5384 157.977 14.2912 158.272 13.7969C158.568 13.2997 158.717 12.6193 158.72 11.7557H158.66C158.529 12.0114 158.353 12.2315 158.132 12.4162C157.91 12.598 157.656 12.7386 157.369 12.8381C157.085 12.9375 156.782 12.9872 156.461 12.9872C155.947 12.9872 155.488 12.8665 155.085 12.625C154.681 12.3835 154.363 12.0511 154.13 11.6278C153.897 11.2045 153.781 10.7216 153.781 10.179C153.778 9.59375 153.913 9.07244 154.186 8.61506C154.458 8.15767 154.839 7.79972 155.328 7.54119C155.819 7.27983 156.39 7.15057 157.041 7.15341ZM157.054 8.60227C156.767 8.60227 156.511 8.67045 156.287 8.80682C156.065 8.94318 155.889 9.12642 155.758 9.35653C155.63 9.58665 155.568 9.84375 155.571 10.1278C155.571 10.4148 155.633 10.6733 155.758 10.9034C155.886 11.1307 156.059 11.3125 156.278 11.4489C156.5 11.5824 156.752 11.6491 157.037 11.6491C157.25 11.6491 157.447 11.6094 157.629 11.5298C157.811 11.4503 157.968 11.3409 158.102 11.2017C158.238 11.0597 158.345 10.8963 158.422 10.7116C158.498 10.527 158.537 10.331 158.537 10.1236C158.534 9.84801 158.468 9.59517 158.341 9.36506C158.213 9.13494 158.037 8.95028 157.812 8.81108C157.588 8.67187 157.335 8.60227 157.054 8.60227ZM161.822 16V9.45455H163.552V10.6094H163.629C163.765 10.2259 163.993 9.9233 164.311 9.7017C164.629 9.48011 165.01 9.36932 165.453 9.36932C165.902 9.36932 166.284 9.48153 166.599 9.70597C166.914 9.92756 167.125 10.2287 167.23 10.6094H167.298C167.431 10.2344 167.673 9.93466 168.022 9.71023C168.375 9.48295 168.791 9.36932 169.271 9.36932C169.882 9.36932 170.377 9.56392 170.758 9.95312C171.142 10.3395 171.333 10.8878 171.333 11.598V16H169.522V11.956C169.522 11.5923 169.426 11.3196 169.233 11.1378C169.039 10.956 168.798 10.8651 168.508 10.8651C168.179 10.8651 167.922 10.9702 167.737 11.1804C167.552 11.3878 167.46 11.6619 167.46 12.0028V16H165.7V11.9176C165.7 11.5966 165.608 11.3409 165.423 11.1506C165.241 10.9602 165.001 10.8651 164.703 10.8651C164.501 10.8651 164.319 10.9162 164.157 11.0185C163.998 11.1179 163.872 11.2585 163.778 11.4403C163.684 11.6193 163.637 11.8295 163.637 12.071V16H161.822Z" fill="#374151"/>
<rect y="28" width="62" height="24" rx="4" fill="#F3F4F6"/>
<g clip-path="url(#clip0_205_519)">
<path d="M11 33.5833L5.75 35.9167V39.4167C5.75 42.6542 7.99 45.6817 11 46.4167C14.01 45.6817 16.25 42.6542 16.25 39.4167V35.9167L11 33.5833Z" fill="#374151"/>
</g>
<path d="M24.723 44L22.2259 35.2727H24.2415L25.6861 41.3366H25.7585L27.3523 35.2727H29.0781L30.6676 41.3494H30.7443L32.1889 35.2727H34.2045L31.7074 44H29.9091L28.2472 38.294H28.179L26.5213 44H24.723ZM36.3214 44.1236C35.9038 44.1236 35.5316 44.0511 35.2049 43.9062C34.8782 43.7585 34.6197 43.5412 34.4293 43.2543C34.2418 42.9645 34.1481 42.6037 34.1481 42.1719C34.1481 41.8082 34.2148 41.5028 34.3484 41.2557C34.4819 41.0085 34.6637 40.8097 34.8938 40.6591C35.1239 40.5085 35.3853 40.3949 35.6779 40.3182C35.9734 40.2415 36.283 40.1875 36.6069 40.1562C36.9876 40.1165 37.2944 40.0795 37.5273 40.0455C37.7603 40.0085 37.9293 39.9545 38.0344 39.8835C38.1396 39.8125 38.1921 39.7074 38.1921 39.5682V39.5426C38.1921 39.2727 38.1069 39.0639 37.9364 38.9162C37.7688 38.7685 37.5302 38.6946 37.2205 38.6946C36.8938 38.6946 36.6339 38.767 36.4407 38.9119C36.2475 39.054 36.1197 39.233 36.0572 39.4489L34.3782 39.3125C34.4634 38.9148 34.631 38.571 34.881 38.2812C35.131 37.9886 35.4535 37.7642 35.8484 37.608C36.2461 37.4489 36.7063 37.3693 37.229 37.3693C37.5927 37.3693 37.9407 37.4119 38.2731 37.4972C38.6083 37.5824 38.9052 37.7145 39.1637 37.8935C39.4251 38.0724 39.631 38.3026 39.7816 38.5838C39.9322 38.8622 40.0075 39.196 40.0075 39.5852V44H38.2859V43.0923H38.2347C38.1296 43.2969 37.989 43.4773 37.8129 43.6335C37.6367 43.7869 37.4251 43.9077 37.1779 43.9957C36.9308 44.081 36.6452 44.1236 36.3214 44.1236ZM36.8413 42.8707C37.1083 42.8707 37.3441 42.8182 37.5487 42.7131C37.7532 42.6051 37.9137 42.4602 38.0302 42.2784C38.1467 42.0966 38.2049 41.8906 38.2049 41.6605V40.9659C38.1481 41.0028 38.07 41.0369 37.9705 41.0682C37.8739 41.0966 37.7646 41.1236 37.6424 41.1491C37.5202 41.1719 37.3981 41.1932 37.2759 41.2131C37.1538 41.2301 37.043 41.2457 36.9435 41.2599C36.7305 41.2912 36.5444 41.3409 36.3853 41.4091C36.2262 41.4773 36.1026 41.5696 36.0146 41.6861C35.9265 41.7997 35.8825 41.9418 35.8825 42.1122C35.8825 42.3594 35.9719 42.5483 36.1509 42.679C36.3327 42.8068 36.5629 42.8707 36.8413 42.8707ZM44.8974 37.4545V38.8182H40.9556V37.4545H44.8974ZM41.8505 35.8864H43.6658V41.9886C43.6658 42.1562 43.6914 42.2869 43.7425 42.3807C43.7937 42.4716 43.8647 42.5355 43.9556 42.5724C44.0494 42.6094 44.1573 42.6278 44.2795 42.6278C44.3647 42.6278 44.4499 42.6207 44.5352 42.6065C44.6204 42.5895 44.6857 42.5767 44.7312 42.5682L45.0167 43.919C44.9258 43.9474 44.7979 43.9801 44.6332 44.017C44.4684 44.0568 44.2681 44.081 44.0323 44.0895C43.5948 44.1065 43.2113 44.0483 42.8817 43.9148C42.555 43.7812 42.3008 43.5739 42.119 43.2926C41.9371 43.0114 41.8477 42.6562 41.8505 42.2273V35.8864ZM48.9925 44.1278C48.3192 44.1278 47.7397 43.9915 47.2539 43.7188C46.771 43.4432 46.3988 43.054 46.1374 42.5511C45.8761 42.0455 45.7454 41.4474 45.7454 40.7571C45.7454 40.0838 45.8761 39.4929 46.1374 38.9844C46.3988 38.4759 46.7667 38.0795 47.2411 37.7955C47.7184 37.5114 48.2781 37.3693 48.9201 37.3693C49.3519 37.3693 49.7539 37.4389 50.1261 37.5781C50.5011 37.7145 50.8278 37.9205 51.1062 38.196C51.3874 38.4716 51.6062 38.8182 51.7624 39.2358C51.9187 39.6506 51.9968 40.1364 51.9968 40.6932V41.1918H46.4698V40.0668H50.288C50.288 39.8054 50.2312 39.5739 50.1175 39.3722C50.0039 39.1705 49.8462 39.0128 49.6445 38.8991C49.4457 38.7827 49.2141 38.7244 48.9499 38.7244C48.6744 38.7244 48.43 38.7884 48.217 38.9162C48.0067 39.0412 47.842 39.2102 47.7227 39.4233C47.6033 39.6335 47.5423 39.8679 47.5394 40.1264V41.196C47.5394 41.5199 47.5991 41.7997 47.7184 42.0355C47.8406 42.2713 48.0124 42.4531 48.234 42.581C48.4556 42.7088 48.7184 42.7727 49.0224 42.7727C49.2241 42.7727 49.4087 42.7443 49.5763 42.6875C49.744 42.6307 49.8874 42.5455 50.0067 42.4318C50.1261 42.3182 50.217 42.179 50.2795 42.0142L51.9585 42.125C51.8732 42.5284 51.6985 42.8807 51.4343 43.1818C51.1729 43.4801 50.8349 43.7131 50.4201 43.8807C50.0082 44.0455 49.5323 44.1278 48.9925 44.1278ZM53.1815 44V37.4545H54.9414V38.5966H55.0096C55.1289 38.1903 55.3292 37.8835 55.6104 37.6761C55.8917 37.4659 56.2156 37.3608 56.582 37.3608C56.6729 37.3608 56.771 37.3665 56.8761 37.3778C56.9812 37.3892 57.0735 37.4048 57.1531 37.4247V39.0355C57.0678 39.0099 56.9499 38.9872 56.7994 38.9673C56.6488 38.9474 56.511 38.9375 56.386 38.9375C56.119 38.9375 55.8803 38.9957 55.6701 39.1122C55.4627 39.2259 55.2979 39.3849 55.1758 39.5895C55.0565 39.794 54.9968 40.0298 54.9968 40.2969V44H53.1815Z" fill="#374151"/>
<rect x="66" y="28" width="71" height="24" rx="4" fill="#F3F4F6"/>
<g clip-path="url(#clip1_205_519)">
<path d="M77 33.5833L71.75 35.9167V39.4167C71.75 42.6542 73.99 45.6817 77 46.4167C80.01 45.6817 82.25 42.6542 82.25 39.4167V35.9167L77 33.5833Z" fill="#374151"/>
</g>
<path d="M88.7585 44V35.2727H94.6392V36.794H90.6037V38.8736H94.3366V40.3949H90.6037V42.4787H94.6562V44H88.7585ZM97.8874 35.2727V44H96.0721V35.2727H97.8874ZM102.325 44.1278C101.651 44.1278 101.072 43.9915 100.586 43.7188C100.103 43.4432 99.7308 43.054 99.4695 42.5511C99.2081 42.0455 99.0774 41.4474 99.0774 40.7571C99.0774 40.0838 99.2081 39.4929 99.4695 38.9844C99.7308 38.4759 100.099 38.0795 100.573 37.7955C101.05 37.5114 101.61 37.3693 102.252 37.3693C102.684 37.3693 103.086 37.4389 103.458 37.5781C103.833 37.7145 104.16 37.9205 104.438 38.196C104.719 38.4716 104.938 38.8182 105.094 39.2358C105.251 39.6506 105.329 40.1364 105.329 40.6932V41.1918H99.8018V40.0668H103.62C103.62 39.8054 103.563 39.5739 103.45 39.3722C103.336 39.1705 103.178 39.0128 102.977 38.8991C102.778 38.7827 102.546 38.7244 102.282 38.7244C102.006 38.7244 101.762 38.7884 101.549 38.9162C101.339 39.0412 101.174 39.2102 101.055 39.4233C100.935 39.6335 100.874 39.8679 100.871 40.1264V41.196C100.871 41.5199 100.931 41.7997 101.05 42.0355C101.173 42.2713 101.344 42.4531 101.566 42.581C101.788 42.7088 102.05 42.7727 102.354 42.7727C102.556 42.7727 102.741 42.7443 102.908 42.6875C103.076 42.6307 103.219 42.5455 103.339 42.4318C103.458 42.3182 103.549 42.179 103.612 42.0142L105.29 42.125C105.205 42.5284 105.031 42.8807 104.766 43.1818C104.505 43.4801 104.167 43.7131 103.752 43.8807C103.34 44.0455 102.864 44.1278 102.325 44.1278ZM109.471 44.1278C108.8 44.1278 108.224 43.9858 107.741 43.7017C107.261 43.4148 106.891 43.017 106.633 42.5085C106.377 42 106.249 41.4148 106.249 40.7528C106.249 40.0824 106.379 39.4943 106.637 38.9886C106.898 38.4801 107.269 38.0838 107.749 37.7997C108.229 37.5128 108.8 37.3693 109.462 37.3693C110.033 37.3693 110.533 37.473 110.962 37.6804C111.391 37.8878 111.731 38.179 111.981 38.554C112.231 38.929 112.369 39.3693 112.394 39.875H110.681C110.633 39.5483 110.505 39.2855 110.298 39.0866C110.093 38.8849 109.825 38.7841 109.492 38.7841C109.211 38.7841 108.965 38.8608 108.755 39.0142C108.548 39.1648 108.386 39.3849 108.269 39.6747C108.153 39.9645 108.094 40.3153 108.094 40.7273C108.094 41.1449 108.151 41.5 108.265 41.7926C108.381 42.0852 108.545 42.3082 108.755 42.4616C108.965 42.6151 109.211 42.6918 109.492 42.6918C109.7 42.6918 109.886 42.6491 110.05 42.5639C110.218 42.4787 110.356 42.3551 110.464 42.1932C110.575 42.0284 110.647 41.831 110.681 41.6009H112.394C112.366 42.1009 112.229 42.5412 111.985 42.9219C111.744 43.2997 111.41 43.5952 110.984 43.8082C110.558 44.0213 110.053 44.1278 109.471 44.1278ZM117.038 37.4545V38.8182H113.096V37.4545H117.038ZM113.991 35.8864H115.806V41.9886C115.806 42.1562 115.832 42.2869 115.883 42.3807C115.934 42.4716 116.005 42.5355 116.096 42.5724C116.19 42.6094 116.298 42.6278 116.42 42.6278C116.505 42.6278 116.591 42.6207 116.676 42.6065C116.761 42.5895 116.826 42.5767 116.872 42.5682L117.157 43.919C117.066 43.9474 116.939 43.9801 116.774 44.017C116.609 44.0568 116.409 44.081 116.173 44.0895C115.735 44.1065 115.352 44.0483 115.022 43.9148C114.696 43.7812 114.441 43.5739 114.26 43.2926C114.078 43.0114 113.988 42.6562 113.991 42.2273V35.8864ZM118.221 44V37.4545H119.98V38.5966H120.049C120.168 38.1903 120.368 37.8835 120.65 37.6761C120.931 37.4659 121.255 37.3608 121.621 37.3608C121.712 37.3608 121.81 37.3665 121.915 37.3778C122.02 37.3892 122.113 37.4048 122.192 37.4247V39.0355C122.107 39.0099 121.989 38.9872 121.838 38.9673C121.688 38.9474 121.55 38.9375 121.425 38.9375C121.158 38.9375 120.919 38.9957 120.709 39.1122C120.502 39.2259 120.337 39.3849 120.215 39.5895C120.096 39.794 120.036 40.0298 120.036 40.2969V44H118.221ZM123.131 44V37.4545H124.946V44H123.131ZM124.043 36.6108C123.773 36.6108 123.541 36.5213 123.348 36.3423C123.158 36.1605 123.062 35.9432 123.062 35.6903C123.062 35.4403 123.158 35.2259 123.348 35.0469C123.541 34.8651 123.773 34.7741 124.043 34.7741C124.313 34.7741 124.543 34.8651 124.733 35.0469C124.926 35.2259 125.023 35.4403 125.023 35.6903C125.023 35.9432 124.926 36.1605 124.733 36.3423C124.543 36.5213 124.313 36.6108 124.043 36.6108ZM129.358 44.1278C128.687 44.1278 128.11 43.9858 127.627 43.7017C127.147 43.4148 126.778 43.017 126.52 42.5085C126.264 42 126.136 41.4148 126.136 40.7528C126.136 40.0824 126.265 39.4943 126.524 38.9886C126.785 38.4801 127.156 38.0838 127.636 37.7997C128.116 37.5128 128.687 37.3693 129.349 37.3693C129.92 37.3693 130.42 37.473 130.849 37.6804C131.278 37.8878 131.618 38.179 131.868 38.554C132.118 38.929 132.255 39.3693 132.281 39.875H130.568C130.52 39.5483 130.392 39.2855 130.184 39.0866C129.98 38.8849 129.711 38.7841 129.379 38.7841C129.098 38.7841 128.852 38.8608 128.642 39.0142C128.434 39.1648 128.272 39.3849 128.156 39.6747C128.039 39.9645 127.981 40.3153 127.981 40.7273C127.981 41.1449 128.038 41.5 128.152 41.7926C128.268 42.0852 128.431 42.3082 128.642 42.4616C128.852 42.6151 129.098 42.6918 129.379 42.6918C129.586 42.6918 129.772 42.6491 129.937 42.5639C130.105 42.4787 130.243 42.3551 130.35 42.1932C130.461 42.0284 130.534 41.831 130.568 41.6009H132.281C132.252 42.1009 132.116 42.5412 131.872 42.9219C131.63 43.2997 131.297 43.5952 130.87 43.8082C130.444 44.0213 129.94 44.1278 129.358 44.1278Z" fill="#374151"/>
<rect x="141" y="28" width="49" height="24" rx="4" fill="#F3F4F6"/>
<g clip-path="url(#clip2_205_519)">
<path d="M154.333 43.5L155.669 42.1642L152.822 39.3175L150.489 41.6508L146.167 37.3225L146.989 36.5L150.489 40L152.822 37.6667L156.497 41.3358L157.833 40V43.5H154.333Z" fill="#374151"/>
</g>
<path d="M163.759 44V35.2727H169.537V36.794H165.604V38.8736H169.153V40.3949H165.604V44H163.759ZM170.744 44V37.4545H172.559V44H170.744ZM171.656 36.6108C171.386 36.6108 171.154 36.5213 170.961 36.3423C170.771 36.1605 170.676 35.9432 170.676 35.6903C170.676 35.4403 170.771 35.2259 170.961 35.0469C171.154 34.8651 171.386 34.7741 171.656 34.7741C171.926 34.7741 172.156 34.8651 172.346 35.0469C172.539 35.2259 172.636 35.4403 172.636 35.6903C172.636 35.9432 172.539 36.1605 172.346 36.3423C172.156 36.5213 171.926 36.6108 171.656 36.6108ZM174.013 44V37.4545H175.773V38.5966H175.842C175.961 38.1903 176.161 37.8835 176.442 37.6761C176.724 37.4659 177.048 37.3608 177.414 37.3608C177.505 37.3608 177.603 37.3665 177.708 37.3778C177.813 37.3892 177.906 37.4048 177.985 37.4247V39.0355C177.9 39.0099 177.782 38.9872 177.631 38.9673C177.481 38.9474 177.343 38.9375 177.218 38.9375C176.951 38.9375 176.712 38.9957 176.502 39.1122C176.295 39.2259 176.13 39.3849 176.008 39.5895C175.888 39.794 175.829 40.0298 175.829 40.2969V44H174.013ZM181.602 44.1278C180.929 44.1278 180.349 43.9915 179.863 43.7188C179.38 43.4432 179.008 43.054 178.747 42.5511C178.485 42.0455 178.355 41.4474 178.355 40.7571C178.355 40.0838 178.485 39.4929 178.747 38.9844C179.008 38.4759 179.376 38.0795 179.85 37.7955C180.328 37.5114 180.887 37.3693 181.529 37.3693C181.961 37.3693 182.363 37.4389 182.735 37.5781C183.11 37.7145 183.437 37.9205 183.716 38.196C183.997 38.4716 184.216 38.8182 184.372 39.2358C184.528 39.6506 184.606 40.1364 184.606 40.6932V41.1918H179.079V40.0668H182.897C182.897 39.8054 182.841 39.5739 182.727 39.3722C182.613 39.1705 182.456 39.0128 182.254 38.8991C182.055 38.7827 181.824 38.7244 181.559 38.7244C181.284 38.7244 181.039 38.7884 180.826 38.9162C180.616 39.0412 180.451 39.2102 180.332 39.4233C180.213 39.6335 180.152 39.8679 180.149 40.1264V41.196C180.149 41.5199 180.208 41.7997 180.328 42.0355C180.45 42.2713 180.622 42.4531 180.843 42.581C181.065 42.7088 181.328 42.7727 181.632 42.7727C181.833 42.7727 182.018 42.7443 182.186 42.6875C182.353 42.6307 182.497 42.5455 182.616 42.4318C182.735 42.3182 182.826 42.179 182.889 42.0142L184.568 42.125C184.483 42.5284 184.308 42.8807 184.044 43.1818C183.782 43.4801 183.444 43.7131 183.029 43.8807C182.618 44.0455 182.142 44.1278 181.602 44.1278Z" fill="#374151"/>
<defs>
<clipPath id="clip0_205_519">
<rect width="14" height="14" fill="white" transform="translate(4 33)"/>
</clipPath>
<clipPath id="clip1_205_519">
<rect width="14" height="14" fill="white" transform="translate(70 33)"/>
</clipPath>
<clipPath id="clip2_205_519">
<rect width="14" height="14" fill="white" transform="translate(145 33)"/>
</clipPath>
</defs>
</svg>
